{
  "source": "C:\\Users\\Peter\\Desktop\\stuff\\MIUN\\quantitative_research\\video_compression\\videos\\BVI-HD\\Lightreef_1920x1080_30fps.mp4",
  "output": "C:\\Users\\Peter\\Desktop\\stuff\\MIUN\\quantitative_research\\video_compression\\compressed_videos\\BVI-HD\\h264\\12\\Lightreef_1920x1080_30fps_h264.mp4",
  "codec": "h264",
  "ok": "Input #0, mov,mp4,m4a,3gp,3g2,mj2, from 'C:\\Users\\Peter\\Desktop\\stuff\\MIUN\\quantitative_research\\video_compression\\videos\\BVI-HD\\Lightreef_1920x1080_30fps.mp4':\n  Metadata:\n    major_brand     : isom\n    minor_version   : 512\n    compatible_brands: isomiso2avc1mp41\n    encoder         : Lavf54.28.101\n  Duration: 00:00:05.00, start: 0.000000, bitrate: 361719 kb/s\n  Stream #0:0[0x1](und): Video: h264 (High 4:4:4 Predictive) (avc1 / 0x31637661), yuv420p(progressive), 1920x1080, 361715 kb/s, 30 fps, 30 tbr, 30 tbn (default)\n    Metadata:\n      handler_name    : VideoHandler\n      vendor_id       : [0][0][0][0]\n[out#0/mp4 @ 0000025638659a80] Codec AVOption b:a (set bitrate (in bits/s)) has not been used for any stream. The most likely reason is either wrong type (e.g. a video option with no video streams) or that it is a private option of some decoder which was not actually used for any stream.\nStream mapping:\n  Stream #0:0 -> #0:0 (h264 (native) -> h264 (libx264))\nPress [q] to stop, [?] for help\n[libx264 @ 00000256395675c0] using cpu capabilities: MMX2 SSE2Fast SSSE3 SSE4.2 AVX FMA3 BMI2 AVX2\n[libx264 @ 00000256395675c0] profile High, level 5.0, 4:2:0, 8-bit\n[libx264 @ 00000256395675c0] 264 - core 165 r3222 b35605a - H.264/MPEG-4 AVC codec - Copyleft 2003-2025 - http://www.videolan.org/x264.html - options: cabac=1 ref=5 deblock=1:0:0 analyse=0x3:0x113 me=hex subme=8 psy=1 psy_rd=1.00:0.00 mixed_ref=1 me_range=16 chroma_me=1 trellis=2 8x8dct=1 cqm=0 deadzone=21,11 fast_pskip=1 chroma_qp_offset=-2 threads=18 lookahead_threads=3 sliced_threads=0 nr=0 decimate=1 interlaced=0 bluray_compat=0 constrained_intra=0 bframes=3 b_pyramid=2 b_adapt=1 b_bias=0 direct=3 weightb=1 open_gop=0 weightp=2 keyint=250 keyint_min=25 scenecut=40 intra_refresh=0 rc_lookahead=50 rc=cbr mbtree=1 bitrate=12000 ratetol=1.0 qcomp=0.60 qpmin=0 qpmax=69 qpstep=4 vbv_maxrate=12000 vbv_bufsize=12000 nal_hrd=none filler=0 ip_ratio=1.40 aq=1:1.00\nOutput #0, mp4, to 'C:\\Users\\Peter\\Desktop\\stuff\\MIUN\\quantitative_research\\video_compression\\compressed_videos\\BVI-HD\\h264\\12\\Lightreef_1920x1080_30fps_h264.mp4':\n  Metadata:\n    major_brand     : isom\n    minor_version   : 512\n    compatible_brands: isomiso2avc1mp41\n    encoder         : Lavf62.3.100\n  Stream #0:0(und): Video: h264 (avc1 / 0x31637661), yuv420p(tv, progressive), 1920x1080, q=2-31, 12000 kb/s, 30 fps, 15360 tbn (default)\n    Metadata:\n      encoder         : Lavc62.11.100 libx264\n      handler_name    : VideoHandler\n      vendor_id       : [0][0][0][0]\n    Side data:\n      cpb: bitrate max/min/avg: 12000000/0/12000000 buffer size: 12000000 vbv_delay: N/A\nframe=    0 fps=0.0 q=0.0 size=       0KiB time=N/A bitrate=N/A speed=N/A elapsed=0:00:01.14    \nframe=    0 fps=0.0 q=0.0 size=       0KiB time=N/A bitrate=N/A speed=N/A elapsed=0:00:01.66    \nframe=    0 fps=0.0 q=0.0 size=       0KiB time=N/A bitrate=N/A speed=N/A elapsed=0:00:02.22    \nframe=    0 fps=0.0 q=0.0 size=       0KiB time=N/A bitrate=N/A speed=N/A elapsed=0:00:02.88    \nframe=    0 fps=0.0 q=0.0 size=       0KiB time=N/A bitrate=N/A speed=N/A elapsed=0:00:03.48    \nframe=    1 fps=0.2 q=32.0 size=       0KiB time=N/A bitrate=N/A speed=N/A elapsed=0:00:04.11    \nframe=   10 fps=2.2 q=33.0 size=     512KiB time=00:00:00.23 bitrate=17977.3kbits/s speed=0.0503x elapsed=0:00:04.64    \nframe=   21 fps=4.0 q=31.0 size=    1024KiB time=00:00:00.63 bitrate=13245.8kbits/s speed=0.121x elapsed=0:00:05.22    \nframe=   21 fps=3.6 q=31.0 size=    1024KiB time=00:00:00.63 bitrate=13245.8kbits/s speed=0.11x elapsed=0:00:05.77    \nframe=   33 fps=5.2 q=30.0 size=    1536KiB time=00:00:00.90 bitrate=13981.4kbits/s speed=0.141x elapsed=0:00:06.37    \nframe=   41 fps=5.8 q=31.0 size=    1792KiB time=00:00:01.30 bitrate=11292.7kbits/s speed=0.184x elapsed=0:00:07.05    \nframe=   45 fps=5.8 q=31.0 size=    1792KiB time=00:00:01.43 bitrate=10242.2kbits/s speed=0.186x elapsed=0:00:07.72    \nframe=   56 fps=6.7 q=31.0 size=    2304KiB time=00:00:01.80 bitrate=10486.0kbits/s speed=0.217x elapsed=0:00:08.30    \nframe=   64 fps=7.2 q=31.0 size=    2560KiB time=00:00:02.06 bitrate=10147.7kbits/s speed=0.232x elapsed=0:00:08.91    \nframe=   79 fps=8.3 q=31.0 size=    3328KiB time=00:00:02.43 bitrate=11204.1kbits/s speed=0.255x elapsed=0:00:09.53    \nframe=   79 fps=7.8 q=31.0 size=    3328KiB time=00:00:02.56 bitrate=10622.1kbits/s speed=0.253x elapsed=0:00:10.14    \nframe=   83 fps=7.7 q=31.0 size=    3584KiB time=00:00:02.70 bitrate=10874.3kbits/s speed=0.251x elapsed=0:00:10.75    \nframe=  100 fps=8.8 q=32.0 size=    4608KiB time=00:00:03.13 bitrate=12047.6kbits/s speed=0.276x elapsed=0:00:11.35    \nframe=  103 fps=8.6 q=32.0 size=    4608KiB time=00:00:03.36 bitrate=11212.6kbits/s speed=0.281x elapsed=0:00:11.96    \nframe=  110 fps=8.8 q=32.0 size=    5120KiB time=00:00:03.60 bitrate=11651.0kbits/s speed=0.289x elapsed=0:00:12.47    \nframe=  122 fps=9.3 q=31.0 size=    5632KiB time=00:00:03.86 bitrate=11932.2kbits/s speed=0.296x elapsed=0:00:13.05    \nframe=  126 fps=9.2 q=28.0 size=    5888KiB time=00:00:04.13 bitrate=11669.7kbits/s speed=0.302x elapsed=0:00:13.68    \nframe=  130 fps=9.1 q=32.0 size=    5888KiB time=00:00:04.26 bitrate=11305.0kbits/s speed=0.298x elapsed=0:00:14.33    \nframe=  146 fps=9.7 q=-1.0 size=    6656KiB time=00:00:04.80 bitrate=11359.7kbits/s speed=0.32x elapsed=0:00:14.97    \n[mp4 @ 0000025638661580] Starting second pass: moving the moov atom to the beginning of the file\n[out#0/mp4 @ 0000025638659a80] video:6903KiB audio:0KiB subtitle:0KiB other streams:0KiB global headers:0KiB muxing overhead: 0.038637%\nframe=  150 fps=9.8 q=-1.0 Lsize=    6905KiB time=00:00:04.93 bitrate=11466.6kbits/s speed=0.324x elapsed=0:00:15.24    \n[libx264 @ 00000256395675c0] frame I:1     Avg QP:26.16  size:290226\n[libx264 @ 00000256395675c0] frame P:38    Avg QP:30.08  size:112879\n[libx264 @ 00000256395675c0] frame B:111   Avg QP:33.78  size: 22414\n[libx264 @ 00000256395675c0] consecutive B-frames:  0.7%  0.0%  6.0% 93.3%\n[libx264 @ 00000256395675c0] mb I  I16..4:  1.2% 93.6%  5.3%\n[libx264 @ 00000256395675c0] mb P  I16..4:  0.4%  8.2%  0.3%  P16..4: 55.1% 23.5% 10.0%  0.0%  0.0%    skip: 2.4%\n[libx264 @ 00000256395675c0] mb B  I16..4:  0.0%  0.3%  0.0%  B16..8: 49.0%  5.9%  1.2%  direct: 6.7%  skip:36.8%  L0:39.0% L1:40.7% BI:20.3%\n[libx264 @ 00000256395675c0] 8x8 transform intra:92.2% inter:80.9%\n[libx264 @ 00000256395675c0] direct mvs  spatial:91.0% temporal:9.0%\n[libx264 @ 00000256395675c0] coded y,uvDC,uvAC intra: 87.8% 88.4% 57.8% inter: 31.2% 32.4% 2.5%\n[libx264 @ 00000256395675c0] i16 v,h,dc,p: 12% 26% 21% 41%\n[libx264 @ 00000256395675c0] i8 v,h,dc,ddl,ddr,vr,hd,vl,hu:  8%  8% 10%  9% 14%  9% 16%  9% 17%\n[libx264 @ 00000256395675c0] i4 v,h,dc,ddl,ddr,vr,hd,vl,hu:  7%  5%  5%  9% 16% 12% 19% 10% 18%\n[libx264 @ 00000256395675c0] i8c dc,h,v,p: 44% 24% 14% 19%\n[libx264 @ 00000256395675c0] Weighted P-Frames: Y:47.4% UV:26.3%\n[libx264 @ 00000256395675c0] ref P L0: 37.4% 18.0% 19.1% 11.7%  8.1%  5.7%\n[libx264 @ 00000256395675c0] ref B L0: 90.5%  7.3%  1.4%  0.8%\n[libx264 @ 00000256395675c0] ref B L1: 98.6%  1.4%\n[libx264 @ 00000256395675c0] kb/s:11308.08\n",
  "seconds": 16.227250814437866,
  "probe_out": {}
}